<mxfile host="Electron" agent="Mozilla/5.0 (Windows NT 10.0; Win64; x64) AppleWebKit/537.36 (KHTML, like Gecko) draw.io/27.0.9 Chrome/134.0.6998.205 Electron/35.4.0 Safari/537.36" version="27.0.9">
  <diagram name="Page-1" id="4lxisS6jDW5UB_R0gl0d">
    <mxGraphModel dx="2302" dy="1380" grid="1" gridSize="10" guides="1" tooltips="1" connect="1" arrows="1" fold="1" page="1" pageScale="1" pageWidth="850" pageHeight="1100" math="0" shadow="0">
      <root>
        <mxCell id="0" />
        <mxCell id="1" parent="0" />
        <mxCell id="Yq4m42GZPtsUUqrVjswV-1" value="High Level Architecture" style="text;html=1;align=center;verticalAlign=middle;whiteSpace=wrap;rounded=0;fontStyle=5;fontSize=29;labelBackgroundColor=none;labelBorderColor=none;" parent="1" vertex="1">
          <mxGeometry x="705" y="120" width="355" height="30" as="geometry" />
        </mxCell>
        <mxCell id="Yq4m42GZPtsUUqrVjswV-2" value="" style="rounded=0;whiteSpace=wrap;html=1;labelBorderColor=none;fontColor=default;fillColor=none;dashed=1;strokeColor=light-dark(#000000,#B1AFAF);" parent="1" vertex="1">
          <mxGeometry x="60" y="240" width="230" height="760" as="geometry" />
        </mxCell>
        <mxCell id="fP_lL4izvb8EHnrkXjVt-1" value="&lt;b&gt;Sources&lt;/b&gt;" style="rounded=0;whiteSpace=wrap;html=1;strokeColor=none;fontSize=24;" parent="1" vertex="1">
          <mxGeometry x="115" y="200" width="120" height="60" as="geometry" />
        </mxCell>
        <mxCell id="fP_lL4izvb8EHnrkXjVt-2" value="" style="rounded=0;whiteSpace=wrap;html=1;labelBorderColor=none;fontColor=default;fillColor=none;dashed=1;strokeColor=light-dark(#000000,#B1AFAF);" parent="1" vertex="1">
          <mxGeometry x="380" y="240" width="950" height="760" as="geometry" />
        </mxCell>
        <mxCell id="fP_lL4izvb8EHnrkXjVt-3" value="" style="rounded=0;whiteSpace=wrap;html=1;labelBorderColor=none;fontColor=default;fillColor=none;dashed=1;strokeColor=light-dark(#000000,#B1AFAF);" parent="1" vertex="1">
          <mxGeometry x="1390" y="235" width="240" height="765" as="geometry" />
        </mxCell>
        <mxCell id="fP_lL4izvb8EHnrkXjVt-4" value="&lt;b&gt;Data Warehouse&lt;/b&gt;" style="rounded=0;whiteSpace=wrap;html=1;strokeColor=none;fontSize=24;" parent="1" vertex="1">
          <mxGeometry x="750" y="200" width="220" height="60" as="geometry" />
        </mxCell>
        <mxCell id="fP_lL4izvb8EHnrkXjVt-5" value="&lt;b&gt;Consume&lt;/b&gt;" style="rounded=0;whiteSpace=wrap;html=1;strokeColor=none;fontSize=24;" parent="1" vertex="1">
          <mxGeometry x="1450" y="200" width="120" height="60" as="geometry" />
        </mxCell>
        <mxCell id="fP_lL4izvb8EHnrkXjVt-8" value="&lt;b&gt;Bronze Layer&lt;/b&gt;" style="rounded=0;whiteSpace=wrap;html=1;fillColor=#fad7ac;strokeColor=#b46504;fontSize=20;" parent="1" vertex="1">
          <mxGeometry x="420" y="280" width="240" height="60" as="geometry" />
        </mxCell>
        <mxCell id="fP_lL4izvb8EHnrkXjVt-9" value="" style="rounded=0;whiteSpace=wrap;html=1;fillColor=none;strokeColor=#b46504;fontSize=20;" parent="1" vertex="1">
          <mxGeometry x="420" y="360" width="240" height="610" as="geometry" />
        </mxCell>
        <mxCell id="fP_lL4izvb8EHnrkXjVt-10" value="" style="rounded=0;whiteSpace=wrap;html=1;fillColor=none;strokeColor=#314354;fontSize=20;fontColor=#ffffff;" parent="1" vertex="1">
          <mxGeometry x="740" y="360" width="240" height="610" as="geometry" />
        </mxCell>
        <mxCell id="fP_lL4izvb8EHnrkXjVt-11" value="" style="rounded=0;whiteSpace=wrap;html=1;fillColor=none;strokeColor=#B09500;fontSize=20;fontColor=#000000;" parent="1" vertex="1">
          <mxGeometry x="1060" y="360" width="240" height="610" as="geometry" />
        </mxCell>
        <mxCell id="fP_lL4izvb8EHnrkXjVt-12" value="&lt;b&gt;&lt;font style=&quot;color: rgb(0, 0, 0);&quot;&gt;Silver Layer&lt;/font&gt;&lt;/b&gt;" style="rounded=0;whiteSpace=wrap;html=1;fontSize=20;fillColor=#647687;strokeColor=#314354;fontColor=#ffffff;" parent="1" vertex="1">
          <mxGeometry x="740" y="280" width="240" height="60" as="geometry" />
        </mxCell>
        <mxCell id="fP_lL4izvb8EHnrkXjVt-13" value="&lt;b&gt;Gold Layer&lt;/b&gt;" style="rounded=0;whiteSpace=wrap;html=1;fillColor=#e3c800;strokeColor=#B09500;fontSize=20;fontColor=#000000;" parent="1" vertex="1">
          <mxGeometry x="1055" y="280" width="240" height="60" as="geometry" />
        </mxCell>
        <mxCell id="fP_lL4izvb8EHnrkXjVt-18" value="" style="group" parent="1" vertex="1" connectable="0">
          <mxGeometry x="123.50999999999999" y="410" width="102.97999999999999" height="90" as="geometry" />
        </mxCell>
        <mxCell id="fP_lL4izvb8EHnrkXjVt-15" value="" style="image;aspect=fixed;html=1;points=[];align=center;fontSize=12;image=img/lib/azure2/general/Folder_Blank.svg;" parent="fP_lL4izvb8EHnrkXjVt-18" vertex="1">
          <mxGeometry width="86.25" height="70" as="geometry" />
        </mxCell>
        <mxCell id="fP_lL4izvb8EHnrkXjVt-16" value="&lt;b&gt;&lt;font style=&quot;font-size: 20px;&quot;&gt;CRM&lt;/font&gt;&lt;/b&gt;" style="image;aspect=fixed;html=1;points=[];align=center;fontSize=12;image=img/lib/azure2/general/Files.svg;" parent="fP_lL4izvb8EHnrkXjVt-18" vertex="1">
          <mxGeometry x="48.12" y="30" width="54.86" height="60" as="geometry" />
        </mxCell>
        <mxCell id="fP_lL4izvb8EHnrkXjVt-19" value="" style="group" parent="1" vertex="1" connectable="0">
          <mxGeometry x="123.51" y="590" width="102.97999999999999" height="90" as="geometry" />
        </mxCell>
        <mxCell id="fP_lL4izvb8EHnrkXjVt-20" value="" style="image;aspect=fixed;html=1;points=[];align=center;fontSize=12;image=img/lib/azure2/general/Folder_Blank.svg;" parent="fP_lL4izvb8EHnrkXjVt-19" vertex="1">
          <mxGeometry width="86.25" height="70" as="geometry" />
        </mxCell>
        <mxCell id="fP_lL4izvb8EHnrkXjVt-21" value="&lt;b&gt;&lt;font style=&quot;font-size: 20px;&quot;&gt;ERP&lt;/font&gt;&lt;/b&gt;&lt;div&gt;&lt;b&gt;&lt;font style=&quot;font-size: 20px;&quot;&gt;&lt;br&gt;&lt;/font&gt;&lt;/b&gt;&lt;/div&gt;" style="image;aspect=fixed;html=1;points=[];align=center;fontSize=12;image=img/lib/azure2/general/Files.svg;" parent="fP_lL4izvb8EHnrkXjVt-19" vertex="1">
          <mxGeometry x="48.12" y="30" width="54.86" height="60" as="geometry" />
        </mxCell>
        <mxCell id="fP_lL4izvb8EHnrkXjVt-24" value="" style="endArrow=none;html=1;rounded=0;" parent="1" edge="1">
          <mxGeometry width="50" height="50" relative="1" as="geometry">
            <mxPoint x="270" y="740" as="sourcePoint" />
            <mxPoint x="80" y="740" as="targetPoint" />
          </mxGeometry>
        </mxCell>
        <mxCell id="fP_lL4izvb8EHnrkXjVt-25" value="&lt;font style=&quot;font-size: 16px;&quot;&gt;&lt;b&gt;Object Type&lt;/b&gt;: CSV Files&lt;/font&gt;&lt;div&gt;&lt;span style=&quot;font-size: 16px;&quot;&gt;&lt;br&gt;&lt;/span&gt;&lt;/div&gt;&lt;div&gt;&lt;span style=&quot;font-size: 16px;&quot;&gt;&lt;br&gt;&lt;/span&gt;&lt;div&gt;&lt;font style=&quot;font-size: 16px;&quot;&gt;&lt;b&gt;Interface&lt;/b&gt;: FIles in Folder&amp;nbsp;&lt;/font&gt;&lt;/div&gt;&lt;/div&gt;" style="text;html=1;align=left;verticalAlign=middle;whiteSpace=wrap;rounded=0;" parent="1" vertex="1">
          <mxGeometry x="72.5" y="790" width="205" height="110" as="geometry" />
        </mxCell>
        <mxCell id="fP_lL4izvb8EHnrkXjVt-26" value="" style="html=1;verticalLabelPosition=bottom;align=center;labelBackgroundColor=#ffffff;verticalAlign=top;strokeWidth=2;strokeColor=#b46504;shadow=0;dashed=0;shape=mxgraph.ios7.icons.data;fillColor=#fad7ac;" parent="1" vertex="1">
          <mxGeometry x="490" y="470" width="70" height="90" as="geometry" />
        </mxCell>
        <mxCell id="fP_lL4izvb8EHnrkXjVt-27" value="" style="html=1;verticalLabelPosition=bottom;align=center;labelBackgroundColor=#ffffff;verticalAlign=top;strokeWidth=2;strokeColor=#314354;shadow=0;dashed=0;shape=mxgraph.ios7.icons.data;fillColor=#647687;fontColor=#ffffff;" parent="1" vertex="1">
          <mxGeometry x="825" y="470" width="70" height="90" as="geometry" />
        </mxCell>
        <mxCell id="fP_lL4izvb8EHnrkXjVt-28" value="" style="html=1;verticalLabelPosition=bottom;align=center;labelBackgroundColor=#ffffff;verticalAlign=top;strokeWidth=2;strokeColor=#B09500;shadow=0;dashed=0;shape=mxgraph.ios7.icons.data;fillColor=#e3c800;fontColor=#000000;" parent="1" vertex="1">
          <mxGeometry x="1145" y="470" width="70" height="90" as="geometry" />
        </mxCell>
        <mxCell id="fP_lL4izvb8EHnrkXjVt-29" value="" style="shape=singleArrow;whiteSpace=wrap;html=1;fillColor=#b1ddf0;strokeColor=#10739e;" parent="1" vertex="1">
          <mxGeometry x="290" y="540" width="110" height="50" as="geometry" />
        </mxCell>
        <mxCell id="fP_lL4izvb8EHnrkXjVt-30" value="" style="shape=singleArrow;whiteSpace=wrap;html=1;fillColor=#b1ddf0;strokeColor=#10739e;" parent="1" vertex="1">
          <mxGeometry x="650" y="540" width="110" height="50" as="geometry" />
        </mxCell>
        <mxCell id="fP_lL4izvb8EHnrkXjVt-31" value="" style="shape=singleArrow;whiteSpace=wrap;html=1;fillColor=#b1ddf0;strokeColor=#10739e;" parent="1" vertex="1">
          <mxGeometry x="960" y="540" width="110" height="50" as="geometry" />
        </mxCell>
        <mxCell id="fP_lL4izvb8EHnrkXjVt-32" value="" style="shape=singleArrow;whiteSpace=wrap;html=1;fillColor=#b1ddf0;strokeColor=#10739e;" parent="1" vertex="1">
          <mxGeometry x="1295" y="540" width="110" height="50" as="geometry" />
        </mxCell>
        <mxCell id="fP_lL4izvb8EHnrkXjVt-33" value="&lt;font style=&quot;font-size: 18px;&quot;&gt;Raw Data&lt;/font&gt;" style="text;html=1;align=center;verticalAlign=middle;whiteSpace=wrap;rounded=0;" parent="1" vertex="1">
          <mxGeometry x="480" y="570" width="90" height="30" as="geometry" />
        </mxCell>
        <mxCell id="fP_lL4izvb8EHnrkXjVt-34" value="Cleaned, Standardized Data" style="text;html=1;align=center;verticalAlign=middle;whiteSpace=wrap;rounded=0;fontSize=18;" parent="1" vertex="1">
          <mxGeometry x="782.5" y="570" width="155" height="30" as="geometry" />
        </mxCell>
        <mxCell id="fP_lL4izvb8EHnrkXjVt-35" value="&lt;font style=&quot;font-size: 18px;&quot;&gt;Business-Ready Data&lt;/font&gt;" style="text;html=1;align=center;verticalAlign=middle;whiteSpace=wrap;rounded=0;" parent="1" vertex="1">
          <mxGeometry x="1105" y="570" width="150" height="30" as="geometry" />
        </mxCell>
        <mxCell id="fP_lL4izvb8EHnrkXjVt-37" value="" style="endArrow=none;html=1;rounded=0;fillColor=#f0a30a;strokeColor=#BD7000;" parent="1" edge="1">
          <mxGeometry width="50" height="50" relative="1" as="geometry">
            <mxPoint x="620" y="619.17" as="sourcePoint" />
            <mxPoint x="430" y="619.17" as="targetPoint" />
          </mxGeometry>
        </mxCell>
        <mxCell id="fP_lL4izvb8EHnrkXjVt-38" value="" style="endArrow=none;html=1;rounded=0;fillColor=#647687;strokeColor=#314354;" parent="1" edge="1">
          <mxGeometry width="50" height="50" relative="1" as="geometry">
            <mxPoint x="955" y="619.17" as="sourcePoint" />
            <mxPoint x="765" y="619.17" as="targetPoint" />
          </mxGeometry>
        </mxCell>
        <mxCell id="fP_lL4izvb8EHnrkXjVt-39" value="" style="endArrow=none;html=1;rounded=0;fillColor=#e3c800;strokeColor=#B09500;" parent="1" edge="1">
          <mxGeometry width="50" height="50" relative="1" as="geometry">
            <mxPoint x="1270" y="619.17" as="sourcePoint" />
            <mxPoint x="1080" y="619.17" as="targetPoint" />
          </mxGeometry>
        </mxCell>
        <mxCell id="fP_lL4izvb8EHnrkXjVt-43" value="&lt;font style=&quot;font-size: 17px;&quot;&gt;&lt;b style=&quot;&quot;&gt;Object Type&lt;/b&gt;: Tables&lt;/font&gt;&lt;div&gt;&lt;span style=&quot;font-size: 17px;&quot;&gt;&lt;br&gt;&lt;/span&gt;&lt;div&gt;&lt;font style=&quot;font-size: 17px;&quot;&gt;&lt;b&gt;Load:&amp;nbsp;&lt;/b&gt;&amp;nbsp;&lt;/font&gt;&lt;/div&gt;&lt;div&gt;&lt;ul&gt;&lt;li&gt;&lt;font style=&quot;font-size: 17px;&quot;&gt;Batch Processing&lt;/font&gt;&lt;/li&gt;&lt;li&gt;&lt;font style=&quot;font-size: 17px;&quot;&gt;Full Load (Truncate &amp;amp; Insert)&lt;/font&gt;&lt;/li&gt;&lt;/ul&gt;&lt;/div&gt;&lt;div&gt;&lt;font style=&quot;font-size: 17px;&quot;&gt;&lt;br&gt;&lt;/font&gt;&lt;/div&gt;&lt;div&gt;&lt;font style=&quot;font-size: 17px;&quot;&gt;No &lt;b&gt;Transformations&lt;/b&gt;&lt;/font&gt;&lt;/div&gt;&lt;div&gt;&lt;font style=&quot;font-size: 17px;&quot;&gt;&lt;b&gt;&lt;br&gt;&lt;/b&gt;&lt;/font&gt;&lt;/div&gt;&lt;div&gt;&lt;font style=&quot;font-size: 17px;&quot;&gt;&lt;b style=&quot;&quot;&gt;Data Model&lt;/b&gt;: None (as-is)&lt;span style=&quot;background-color: transparent; color: light-dark(rgb(0, 0, 0), rgb(255, 255, 255));&quot;&gt;&amp;nbsp;&lt;/span&gt;&lt;/font&gt;&lt;/div&gt;&lt;/div&gt;" style="text;html=1;align=left;verticalAlign=middle;whiteSpace=wrap;rounded=0;" parent="1" vertex="1">
          <mxGeometry x="437.5" y="640" width="205" height="230" as="geometry" />
        </mxCell>
        <mxCell id="fP_lL4izvb8EHnrkXjVt-44" value="&lt;font style=&quot;font-size: 17px;&quot;&gt;&lt;b style=&quot;&quot;&gt;Object Type&lt;/b&gt;: Tables&lt;/font&gt;&lt;div&gt;&lt;span style=&quot;font-size: 17px;&quot;&gt;&lt;br&gt;&lt;/span&gt;&lt;div&gt;&lt;font style=&quot;font-size: 17px;&quot;&gt;&lt;b&gt;Load:&amp;nbsp;&lt;/b&gt;&amp;nbsp;&lt;/font&gt;&lt;/div&gt;&lt;div&gt;&lt;ul&gt;&lt;li&gt;&lt;font style=&quot;font-size: 17px;&quot;&gt;Batch Processing&lt;/font&gt;&lt;/li&gt;&lt;li&gt;&lt;font style=&quot;font-size: 17px;&quot;&gt;Full Load (Truncate &amp;amp; Insert)&lt;/font&gt;&lt;/li&gt;&lt;/ul&gt;&lt;/div&gt;&lt;div&gt;&lt;b style=&quot;font-size: 17px; background-color: transparent; color: light-dark(rgb(0, 0, 0), rgb(255, 255, 255));&quot;&gt;Transformations:&lt;/b&gt;&lt;/div&gt;&lt;div&gt;&lt;ul&gt;&lt;li&gt;&lt;span style=&quot;font-size: 17px;&quot;&gt;Data Cleansing&lt;/span&gt;&lt;/li&gt;&lt;li&gt;&lt;span style=&quot;font-size: 17px;&quot;&gt;Data Standardization&lt;/span&gt;&lt;/li&gt;&lt;li&gt;&lt;span style=&quot;font-size: 17px;&quot;&gt;Data Normalization&lt;/span&gt;&lt;/li&gt;&lt;li&gt;&lt;span style=&quot;font-size: 17px;&quot;&gt;Derived Columns&lt;/span&gt;&lt;/li&gt;&lt;li&gt;&lt;span style=&quot;font-size: 17px;&quot;&gt;Data Enrichment&lt;/span&gt;&lt;/li&gt;&lt;/ul&gt;&lt;/div&gt;&lt;div&gt;&lt;font style=&quot;font-size: 17px;&quot;&gt;&lt;b style=&quot;&quot;&gt;Data Model&lt;/b&gt;: None (as-is)&lt;span style=&quot;background-color: transparent; color: light-dark(rgb(0, 0, 0), rgb(255, 255, 255));&quot;&gt;&amp;nbsp;&lt;/span&gt;&lt;/font&gt;&lt;/div&gt;&lt;/div&gt;" style="text;html=1;align=left;verticalAlign=middle;whiteSpace=wrap;rounded=0;" parent="1" vertex="1">
          <mxGeometry x="757.5" y="640" width="205" height="300" as="geometry" />
        </mxCell>
        <mxCell id="fP_lL4izvb8EHnrkXjVt-45" value="&lt;font style=&quot;font-size: 17px;&quot;&gt;&lt;b style=&quot;&quot;&gt;Object Type&lt;/b&gt;: Views&lt;/font&gt;&lt;div&gt;&lt;span style=&quot;font-size: 17px;&quot;&gt;&lt;br&gt;&lt;/span&gt;&lt;div&gt;&lt;font style=&quot;font-size: 17px;&quot;&gt;No&amp;nbsp;&lt;b&gt;Load&lt;/b&gt;&lt;/font&gt;&lt;/div&gt;&lt;div&gt;&lt;font style=&quot;font-size: 17px;&quot;&gt;&lt;b&gt;&lt;br&gt;&lt;/b&gt;&lt;/font&gt;&lt;/div&gt;&lt;div&gt;&lt;b style=&quot;background-color: transparent; color: light-dark(rgb(0, 0, 0), rgb(255, 255, 255)); font-size: 17px;&quot;&gt;Transformations:&lt;/b&gt;&lt;/div&gt;&lt;div&gt;&lt;ul&gt;&lt;li&gt;&lt;span style=&quot;font-size: 17px;&quot;&gt;Data Integrations&lt;/span&gt;&lt;/li&gt;&lt;li&gt;&lt;span style=&quot;font-size: 17px;&quot;&gt;Aggerations&lt;/span&gt;&lt;/li&gt;&lt;li&gt;&lt;span style=&quot;font-size: 17px;&quot;&gt;Business Logics&lt;/span&gt;&lt;/li&gt;&lt;/ul&gt;&lt;/div&gt;&lt;div&gt;&lt;font style=&quot;font-size: 17px;&quot;&gt;&lt;b style=&quot;&quot;&gt;Data Model&lt;/b&gt;:&amp;nbsp;&lt;/font&gt;&lt;/div&gt;&lt;/div&gt;&lt;div&gt;&lt;ul&gt;&lt;li&gt;&lt;font style=&quot;font-size: 17px;&quot;&gt;Star Schema&lt;/font&gt;&lt;/li&gt;&lt;li&gt;&lt;font style=&quot;font-size: 17px;&quot;&gt;Flat Table&lt;/font&gt;&lt;/li&gt;&lt;li&gt;&lt;font style=&quot;font-size: 17px;&quot;&gt;Aggegrated Table&lt;/font&gt;&lt;/li&gt;&lt;/ul&gt;&lt;/div&gt;" style="text;html=1;align=left;verticalAlign=middle;whiteSpace=wrap;rounded=0;" parent="1" vertex="1">
          <mxGeometry x="1077.5" y="640" width="205" height="300" as="geometry" />
        </mxCell>
        <mxCell id="fP_lL4izvb8EHnrkXjVt-66" value="" style="group" parent="1" vertex="1" connectable="0">
          <mxGeometry x="1440.98" y="380" width="158.03999999999996" height="110" as="geometry" />
        </mxCell>
        <mxCell id="fP_lL4izvb8EHnrkXjVt-61" value="" style="verticalLabelPosition=bottom;sketch=0;aspect=fixed;html=1;verticalAlign=top;strokeColor=none;align=center;outlineConnect=0;shape=mxgraph.citrix.reporting;" parent="fP_lL4izvb8EHnrkXjVt-66" vertex="1">
          <mxGeometry x="60" width="98.04" height="110" as="geometry" />
        </mxCell>
        <mxCell id="fP_lL4izvb8EHnrkXjVt-64" value="&lt;font style=&quot;font-size: 18px;&quot;&gt;&lt;b style=&quot;&quot;&gt;BI &amp;amp; Reporting&lt;/b&gt;&lt;/font&gt;" style="image;aspect=fixed;html=1;points=[];align=left;fontSize=12;image=img/lib/azure2/analytics/Power_BI_Embedded.svg;" parent="fP_lL4izvb8EHnrkXjVt-66" vertex="1">
          <mxGeometry y="20" width="67.5" height="90" as="geometry" />
        </mxCell>
        <mxCell id="fP_lL4izvb8EHnrkXjVt-71" value="&lt;font style=&quot;font-size: 18px;&quot;&gt;&lt;b&gt;Ad-Hoc&lt;/b&gt;&lt;/font&gt;&lt;div&gt;&lt;font style=&quot;font-size: 18px;&quot;&gt;&lt;b&gt;SQL Queries&lt;/b&gt;&lt;/font&gt;&lt;/div&gt;" style="sketch=0;html=1;aspect=fixed;strokeColor=none;shadow=0;fillColor=#3B8DF1;verticalAlign=top;labelPosition=center;verticalLabelPosition=bottom;shape=mxgraph.gcp2.big_query" parent="1" vertex="1">
          <mxGeometry x="1475.35" y="595" width="69.3" height="70" as="geometry" />
        </mxCell>
        <mxCell id="fP_lL4izvb8EHnrkXjVt-72" value="&lt;b&gt;&lt;font style=&quot;font-size: 18px;&quot;&gt;Machine Learning&lt;/font&gt;&lt;/b&gt;" style="sketch=0;points=[[0,0,0],[0.25,0,0],[0.5,0,0],[0.75,0,0],[1,0,0],[0,1,0],[0.25,1,0],[0.5,1,0],[0.75,1,0],[1,1,0],[0,0.25,0],[0,0.5,0],[0,0.75,0],[1,0.25,0],[1,0.5,0],[1,0.75,0]];outlineConnect=0;fontColor=#232F3E;fillColor=#01A88D;strokeColor=#ffffff;dashed=0;verticalLabelPosition=bottom;verticalAlign=top;align=center;html=1;fontSize=12;fontStyle=0;aspect=fixed;shape=mxgraph.aws4.resourceIcon;resIcon=mxgraph.aws4.machine_learning;" parent="1" vertex="1">
          <mxGeometry x="1475" y="790" width="78" height="78" as="geometry" />
        </mxCell>
        <mxCell id="fP_lL4izvb8EHnrkXjVt-73" value="SQL Server" style="sketch=0;outlineConnect=0;fontColor=#232F3E;gradientColor=none;fillColor=#C925D1;strokeColor=none;dashed=0;verticalLabelPosition=bottom;verticalAlign=top;align=center;html=1;fontSize=12;fontStyle=0;aspect=fixed;pointerEvents=1;shape=mxgraph.aws4.rds_sql_server_instance;" parent="1" vertex="1">
          <mxGeometry x="360" y="206.5" width="47" height="47" as="geometry" />
        </mxCell>
      </root>
    </mxGraphModel>
  </diagram>
</mxfile>
